G04 DipTrace 2.4.0.2*
%INBottom.gbr*%
%MOIN*%
%ADD13C,0.03*%
%ADD14C,0.007*%
%ADD19C,0.08*%
%ADD21C,0.04*%
%FSLAX44Y44*%
G04*
G70*
G90*
G75*
G01*
%LNBottom*%
%LPD*%
X8040Y5740D2*
D13*
X9640D1*
X10290Y5090D1*
X43440Y5740D2*
X41740D1*
X41090Y6390D1*
X11090D2*
X12990D1*
X14290Y5090D1*
X16290D1*
X17090Y6390D2*
X19290D1*
X20590Y5090D1*
X22290D1*
X23140Y6390D2*
X25090D1*
X26390Y5090D1*
X28290D1*
X29090Y6390D2*
X31090D1*
X32390Y5090D1*
X34290D1*
X35140Y6390D2*
X37190D1*
X38490Y5090D1*
X40290D1*
D21*
X10290D3*
X11090Y6390D3*
X17090D3*
X23140D3*
X29090D3*
X35140D3*
X40290Y5090D3*
X34290D3*
X28290D3*
X22290D3*
X16290D3*
X41090Y6390D3*
X15090Y4540D3*
X9090D3*
X21090D3*
X27090D3*
X33090D3*
X39090D3*
X8361Y7236D2*
D14*
X43119D1*
X8450Y7168D2*
X43030D1*
X8512Y7099D2*
X42968D1*
X8558Y7030D2*
X42922D1*
X8591Y6962D2*
X42889D1*
X8614Y6893D2*
X42866D1*
X8628Y6824D2*
X42852D1*
X8635Y6755D2*
X10954D1*
X11226D2*
X16954D1*
X17226D2*
X23004D1*
X23277D2*
X28954D1*
X29227D2*
X35004D1*
X35276D2*
X40954D1*
X41226D2*
X42845D1*
X8633Y6687D2*
X10833D1*
X13158D2*
X16834D1*
X19458D2*
X22883D1*
X25258D2*
X28833D1*
X31258D2*
X34884D1*
X37358D2*
X40834D1*
X41347D2*
X42847D1*
X8622Y6618D2*
X10770D1*
X13246D2*
X16769D1*
X19546D2*
X22820D1*
X25346D2*
X28770D1*
X31346D2*
X34819D1*
X37446D2*
X40769D1*
X41410D2*
X42858D1*
X8603Y6549D2*
X10729D1*
X13315D2*
X16730D1*
X19615D2*
X22779D1*
X25415D2*
X28729D1*
X31415D2*
X34780D1*
X37515D2*
X40730D1*
X41451D2*
X42877D1*
X8575Y6481D2*
X10707D1*
X13384D2*
X16706D1*
X19684D2*
X22756D1*
X25484D2*
X28706D1*
X31484D2*
X34756D1*
X37584D2*
X40706D1*
X41483D2*
X42905D1*
X8535Y6412D2*
X10696D1*
X13453D2*
X16696D1*
X19753D2*
X22745D1*
X25553D2*
X28695D1*
X31552D2*
X34746D1*
X37653D2*
X40696D1*
X41552D2*
X42945D1*
X8481Y6343D2*
X10698D1*
X13522D2*
X16698D1*
X19822D2*
X22748D1*
X25621D2*
X28698D1*
X31621D2*
X34748D1*
X37721D2*
X40698D1*
X41621D2*
X42999D1*
X8406Y6275D2*
X10713D1*
X13589D2*
X16713D1*
X19889D2*
X22763D1*
X25690D2*
X28713D1*
X31690D2*
X34762D1*
X37790D2*
X40712D1*
X41690D2*
X43074D1*
X8405Y6206D2*
X10742D1*
X13658D2*
X16742D1*
X19958D2*
X22791D1*
X25758D2*
X28741D1*
X31759D2*
X34792D1*
X37859D2*
X40742D1*
X41759D2*
X43075D1*
X8481Y6137D2*
X10789D1*
X13727D2*
X16789D1*
X20027D2*
X22839D1*
X25827D2*
X28789D1*
X31828D2*
X34839D1*
X37928D2*
X40789D1*
X41827D2*
X42999D1*
X9724Y6069D2*
X10866D1*
X13796D2*
X16867D1*
X20096D2*
X22916D1*
X25896D2*
X28866D1*
X31896D2*
X34917D1*
X37996D2*
X40867D1*
X9863Y6000D2*
X12895D1*
X13865D2*
X19195D1*
X20165D2*
X24995D1*
X25964D2*
X30996D1*
X31964D2*
X37095D1*
X38064D2*
X40996D1*
X9933Y5931D2*
X12964D1*
X13933D2*
X19264D1*
X20233D2*
X25064D1*
X26033D2*
X31064D1*
X32033D2*
X37164D1*
X38133D2*
X41065D1*
X10002Y5863D2*
X13033D1*
X14002D2*
X19333D1*
X20302D2*
X25133D1*
X26102D2*
X31133D1*
X32102D2*
X37233D1*
X38202D2*
X41132D1*
X10071Y5794D2*
X13102D1*
X14071D2*
X19402D1*
X20371D2*
X25202D1*
X26171D2*
X31201D1*
X32171D2*
X37301D1*
X38271D2*
X41201D1*
X10140Y5725D2*
X13171D1*
X14140D2*
X19471D1*
X20440D2*
X25270D1*
X26240D2*
X31270D1*
X32239D2*
X37370D1*
X38340D2*
X41270D1*
X10208Y5656D2*
X13239D1*
X14208D2*
X19539D1*
X20508D2*
X25339D1*
X26308D2*
X31339D1*
X32308D2*
X37439D1*
X38408D2*
X41339D1*
X10276Y5588D2*
X13307D1*
X14276D2*
X19607D1*
X20576D2*
X25408D1*
X26376D2*
X31408D1*
X32377D2*
X37508D1*
X38477D2*
X41408D1*
X10345Y5519D2*
X13376D1*
X14345D2*
X19676D1*
X20645D2*
X25477D1*
X26445D2*
X31477D1*
X32446D2*
X37577D1*
X38546D2*
X41476D1*
X10439Y5450D2*
X13445D1*
X14414D2*
X16140D1*
X16440D2*
X19745D1*
X20714D2*
X22141D1*
X22440D2*
X25545D1*
X26514D2*
X28140D1*
X28439D2*
X31545D1*
X32515D2*
X34140D1*
X34440D2*
X37644D1*
X38614D2*
X40140D1*
X40440D2*
X41559D1*
X8513Y5382D2*
X9513D1*
X10552D2*
X13514D1*
X16552D2*
X19814D1*
X22553D2*
X25613D1*
X28552D2*
X31614D1*
X34552D2*
X37713D1*
X40553D2*
X42967D1*
X7582Y5313D2*
X7629D1*
X8451D2*
X9582D1*
X10614D2*
X13582D1*
X16614D2*
X19882D1*
X22614D2*
X25682D1*
X28614D2*
X31682D1*
X34615D2*
X37782D1*
X40614D2*
X43029D1*
X43851D2*
X43898D1*
X7582Y5244D2*
X7717D1*
X8362D2*
X9651D1*
X10653D2*
X13651D1*
X16653D2*
X19951D1*
X22652D2*
X25751D1*
X28653D2*
X31751D1*
X34653D2*
X37851D1*
X40652D2*
X43118D1*
X43763D2*
X43898D1*
X7582Y5176D2*
X7869D1*
X8211D2*
X9720D1*
X10675D2*
X13720D1*
X16675D2*
X20020D1*
X22675D2*
X25820D1*
X28676D2*
X31820D1*
X34675D2*
X37920D1*
X40675D2*
X43269D1*
X43611D2*
X43898D1*
X7582Y5107D2*
X9789D1*
X10684D2*
X13789D1*
X16685D2*
X20089D1*
X22684D2*
X25889D1*
X28684D2*
X31888D1*
X34685D2*
X37989D1*
X40684D2*
X43898D1*
X7582Y5038D2*
X9857D1*
X10681D2*
X13858D1*
X16681D2*
X20158D1*
X22681D2*
X25957D1*
X28681D2*
X31957D1*
X34681D2*
X38057D1*
X40682D2*
X43898D1*
X7582Y4970D2*
X9915D1*
X10666D2*
X13925D1*
X16665D2*
X20225D1*
X22665D2*
X26026D1*
X28666D2*
X32026D1*
X34666D2*
X38126D1*
X40665D2*
X43898D1*
X7582Y4901D2*
X9944D1*
X10635D2*
X13994D1*
X16636D2*
X20294D1*
X22636D2*
X26094D1*
X28635D2*
X32095D1*
X34635D2*
X38195D1*
X40636D2*
X43898D1*
X7582Y4832D2*
X9993D1*
X10587D2*
X14064D1*
X16586D2*
X20364D1*
X22587D2*
X26164D1*
X28587D2*
X32165D1*
X34586D2*
X38265D1*
X40586D2*
X43898D1*
X7582Y4764D2*
X10074D1*
X10506D2*
X14197D1*
X16506D2*
X20497D1*
X22506D2*
X26297D1*
X28506D2*
X32297D1*
X34506D2*
X38397D1*
X40507D2*
X43898D1*
X7582Y4695D2*
X43898D1*
X7582Y4626D2*
X43898D1*
X7582Y4557D2*
X43898D1*
X7582Y4489D2*
X43898D1*
X7582Y4420D2*
X43898D1*
X7582Y4351D2*
X43898D1*
X7582Y4283D2*
X43898D1*
X7582Y4214D2*
X43898D1*
X8521Y5402D2*
X8484Y5355D1*
X8435Y5305D1*
X8381Y5261D1*
X8321Y5224D1*
X8258Y5194D1*
X8192Y5172D1*
X8123Y5158D1*
X8053Y5152D1*
X7983Y5155D1*
X7914Y5166D1*
X7847Y5185D1*
X7782Y5212D1*
X7721Y5246D1*
X7665Y5287D1*
X7614Y5335D1*
X7575Y5380D1*
Y4175D1*
X43905D1*
Y5381D1*
X43860Y5329D1*
X43809Y5282D1*
X43752Y5242D1*
X43690Y5208D1*
X43625Y5182D1*
X43558Y5164D1*
X43488Y5154D1*
X43418Y5153D1*
X43349Y5159D1*
X43280Y5174D1*
X43214Y5197D1*
X43151Y5228D1*
X43093Y5266D1*
X43039Y5310D1*
X42991Y5361D1*
X42959Y5402D1*
X41740D1*
X41705Y5404D1*
X41670Y5409D1*
X41637Y5418D1*
X41604Y5431D1*
X41573Y5447D1*
X41543Y5465D1*
X41501Y5501D1*
X40985Y6017D1*
X40934Y6035D1*
X40873Y6069D1*
X40818Y6113D1*
X40773Y6166D1*
X40738Y6227D1*
X40715Y6293D1*
X40703Y6362D1*
X40704Y6432D1*
X40718Y6500D1*
X40744Y6565D1*
X40781Y6624D1*
X40828Y6676D1*
X40884Y6718D1*
X40946Y6750D1*
X41013Y6770D1*
X41083Y6778D1*
X41152Y6773D1*
X41220Y6755D1*
X41283Y6726D1*
X41341Y6686D1*
X41390Y6636D1*
X41429Y6578D1*
X41457Y6514D1*
X41463Y6494D1*
X41880Y6078D1*
X42960D1*
X43002Y6131D1*
X43051Y6181D1*
X43106Y6224D1*
X43131Y6240D1*
X43065Y6287D1*
X43014Y6335D1*
X42969Y6389D1*
X42930Y6447D1*
X42899Y6510D1*
X42876Y6576D1*
X42860Y6644D1*
X42853Y6713D1*
X42854Y6783D1*
X42863Y6853D1*
X42881Y6920D1*
X42906Y6986D1*
X42939Y7047D1*
X42979Y7105D1*
X43026Y7157D1*
X43078Y7203D1*
X43136Y7243D1*
X43198Y7275D1*
X43263Y7300D1*
X43275Y7305D1*
X8208Y7303D1*
X8273Y7279D1*
X8336Y7248D1*
X8394Y7209D1*
X8447Y7164D1*
X8495Y7112D1*
X8536Y7056D1*
X8570Y6995D1*
X8596Y6930D1*
X8615Y6862D1*
X8625Y6793D1*
X8628Y6740D1*
X8624Y6670D1*
X8611Y6601D1*
X8591Y6534D1*
X8562Y6470D1*
X8527Y6410D1*
X8484Y6355D1*
X8435Y6305D1*
X8381Y6261D1*
X8349Y6240D1*
X8394Y6209D1*
X8447Y6164D1*
X8495Y6112D1*
X8520Y6078D1*
X9405D1*
X9675Y6076D1*
X9710Y6071D1*
X9743Y6062D1*
X9776Y6049D1*
X9807Y6033D1*
X9837Y6015D1*
X9879Y5979D1*
X10395Y5463D1*
X10452Y5442D1*
X10513Y5407D1*
X10566Y5362D1*
X10611Y5308D1*
X10645Y5247D1*
X10667Y5181D1*
X10677Y5112D1*
X10676Y5055D1*
X10664Y4986D1*
X10639Y4921D1*
X10603Y4861D1*
X10557Y4809D1*
X10502Y4765D1*
X10440Y4732D1*
X10373Y4711D1*
X10304Y4702D1*
X10234Y4706D1*
X10166Y4722D1*
X10102Y4751D1*
X10044Y4790D1*
X9995Y4839D1*
X9954Y4896D1*
X9925Y4959D1*
X9917Y4985D1*
X9500Y5402D1*
X8521D1*
X11280Y6052D2*
X11240Y6032D1*
X11173Y6011D1*
X11104Y6002D1*
X11034Y6006D1*
X10966Y6022D1*
X10902Y6051D1*
X10844Y6090D1*
X10795Y6139D1*
X10754Y6196D1*
X10725Y6259D1*
X10707Y6327D1*
X10702Y6397D1*
X10710Y6466D1*
X10730Y6533D1*
X10761Y6596D1*
X10803Y6651D1*
X10855Y6698D1*
X10914Y6736D1*
X10979Y6762D1*
X11048Y6775D1*
X11118Y6777D1*
X11187Y6766D1*
X11252Y6742D1*
X11281Y6728D1*
X12990D1*
X13025Y6726D1*
X13060Y6721D1*
X13093Y6712D1*
X13126Y6699D1*
X13157Y6683D1*
X13187Y6665D1*
X13229Y6629D1*
X14430Y5428D1*
X16100D1*
X16146Y5450D1*
X16213Y5470D1*
X16283Y5478D1*
X16352Y5473D1*
X16420Y5455D1*
X16483Y5426D1*
X16541Y5386D1*
X16590Y5336D1*
X16629Y5278D1*
X16657Y5214D1*
X16674Y5146D1*
X16678Y5090D1*
X16671Y5020D1*
X16653Y4953D1*
X16622Y4890D1*
X16581Y4834D1*
X16530Y4786D1*
X16472Y4747D1*
X16407Y4720D1*
X16339Y4705D1*
X16269Y4703D1*
X16200Y4713D1*
X16134Y4735D1*
X16100Y4752D1*
X14290D1*
X14255Y4754D1*
X14220Y4759D1*
X14187Y4768D1*
X14154Y4781D1*
X14123Y4797D1*
X14093Y4815D1*
X14051Y4851D1*
X12850Y6052D1*
X11280D1*
X17280D2*
X17240Y6032D1*
X17173Y6011D1*
X17104Y6002D1*
X17034Y6006D1*
X16966Y6022D1*
X16902Y6051D1*
X16844Y6090D1*
X16795Y6139D1*
X16754Y6196D1*
X16725Y6259D1*
X16707Y6327D1*
X16702Y6397D1*
X16710Y6466D1*
X16730Y6533D1*
X16761Y6596D1*
X16803Y6651D1*
X16855Y6698D1*
X16914Y6736D1*
X16979Y6762D1*
X17048Y6775D1*
X17118Y6777D1*
X17187Y6766D1*
X17252Y6742D1*
X17281Y6728D1*
X19290D1*
X19325Y6726D1*
X19360Y6721D1*
X19393Y6712D1*
X19426Y6699D1*
X19457Y6683D1*
X19487Y6665D1*
X19529Y6629D1*
X20730Y5428D1*
X22100D1*
X22146Y5450D1*
X22213Y5470D1*
X22283Y5478D1*
X22352Y5473D1*
X22420Y5455D1*
X22483Y5426D1*
X22541Y5386D1*
X22590Y5336D1*
X22629Y5278D1*
X22657Y5214D1*
X22674Y5146D1*
X22678Y5090D1*
X22671Y5020D1*
X22653Y4953D1*
X22622Y4890D1*
X22581Y4834D1*
X22530Y4786D1*
X22472Y4747D1*
X22407Y4720D1*
X22339Y4705D1*
X22269Y4703D1*
X22200Y4713D1*
X22134Y4735D1*
X22100Y4752D1*
X20590D1*
X20555Y4754D1*
X20520Y4759D1*
X20487Y4768D1*
X20454Y4781D1*
X20423Y4797D1*
X20393Y4815D1*
X20351Y4851D1*
X19150Y6052D1*
X17281D1*
X23330D2*
X23290Y6032D1*
X23223Y6011D1*
X23154Y6002D1*
X23084Y6006D1*
X23016Y6022D1*
X22952Y6051D1*
X22894Y6090D1*
X22845Y6139D1*
X22804Y6196D1*
X22775Y6259D1*
X22757Y6327D1*
X22752Y6397D1*
X22760Y6466D1*
X22780Y6533D1*
X22811Y6596D1*
X22853Y6651D1*
X22905Y6698D1*
X22964Y6736D1*
X23029Y6762D1*
X23098Y6775D1*
X23168Y6777D1*
X23237Y6766D1*
X23302Y6742D1*
X23331Y6728D1*
X25090D1*
X25125Y6726D1*
X25160Y6721D1*
X25193Y6712D1*
X25226Y6699D1*
X25257Y6683D1*
X25287Y6665D1*
X25329Y6629D1*
X26530Y5428D1*
X28100D1*
X28146Y5450D1*
X28213Y5470D1*
X28283Y5478D1*
X28352Y5473D1*
X28420Y5455D1*
X28483Y5426D1*
X28541Y5386D1*
X28590Y5336D1*
X28629Y5278D1*
X28657Y5214D1*
X28674Y5146D1*
X28678Y5090D1*
X28671Y5020D1*
X28653Y4953D1*
X28622Y4890D1*
X28581Y4834D1*
X28530Y4786D1*
X28472Y4747D1*
X28407Y4720D1*
X28339Y4705D1*
X28269Y4703D1*
X28200Y4713D1*
X28134Y4735D1*
X28100Y4752D1*
X26390D1*
X26355Y4754D1*
X26320Y4759D1*
X26287Y4768D1*
X26254Y4781D1*
X26223Y4797D1*
X26193Y4815D1*
X26151Y4851D1*
X24950Y6052D1*
X23330D1*
X29280D2*
X29240Y6032D1*
X29173Y6011D1*
X29104Y6002D1*
X29034Y6006D1*
X28966Y6022D1*
X28902Y6051D1*
X28844Y6090D1*
X28795Y6139D1*
X28754Y6196D1*
X28725Y6259D1*
X28707Y6327D1*
X28702Y6397D1*
X28710Y6466D1*
X28730Y6533D1*
X28761Y6596D1*
X28803Y6651D1*
X28855Y6698D1*
X28914Y6736D1*
X28979Y6762D1*
X29048Y6775D1*
X29118Y6777D1*
X29187Y6766D1*
X29252Y6742D1*
X29281Y6728D1*
X31090D1*
X31125Y6726D1*
X31160Y6721D1*
X31193Y6712D1*
X31226Y6699D1*
X31257Y6683D1*
X31287Y6665D1*
X31329Y6629D1*
X32530Y5428D1*
X34100D1*
X34146Y5450D1*
X34213Y5470D1*
X34283Y5478D1*
X34352Y5473D1*
X34420Y5455D1*
X34483Y5426D1*
X34541Y5386D1*
X34590Y5336D1*
X34629Y5278D1*
X34657Y5214D1*
X34674Y5146D1*
X34678Y5090D1*
X34671Y5020D1*
X34653Y4953D1*
X34622Y4890D1*
X34581Y4834D1*
X34530Y4786D1*
X34472Y4747D1*
X34407Y4720D1*
X34339Y4705D1*
X34269Y4703D1*
X34200Y4713D1*
X34134Y4735D1*
X34100Y4752D1*
X32390D1*
X32355Y4754D1*
X32320Y4759D1*
X32287Y4768D1*
X32254Y4781D1*
X32223Y4797D1*
X32193Y4815D1*
X32151Y4851D1*
X30950Y6052D1*
X29280D1*
X35330D2*
X35290Y6032D1*
X35223Y6011D1*
X35154Y6002D1*
X35084Y6006D1*
X35016Y6022D1*
X34952Y6051D1*
X34894Y6090D1*
X34845Y6139D1*
X34804Y6196D1*
X34775Y6259D1*
X34757Y6327D1*
X34752Y6397D1*
X34760Y6466D1*
X34780Y6533D1*
X34811Y6596D1*
X34853Y6651D1*
X34905Y6698D1*
X34964Y6736D1*
X35029Y6762D1*
X35098Y6775D1*
X35168Y6777D1*
X35237Y6766D1*
X35302Y6742D1*
X35331Y6728D1*
X37190D1*
X37225Y6726D1*
X37260Y6721D1*
X37293Y6712D1*
X37326Y6699D1*
X37357Y6683D1*
X37387Y6665D1*
X37429Y6629D1*
X38630Y5428D1*
X40099D1*
X40146Y5450D1*
X40213Y5470D1*
X40283Y5478D1*
X40352Y5473D1*
X40420Y5455D1*
X40483Y5426D1*
X40541Y5386D1*
X40590Y5336D1*
X40629Y5278D1*
X40657Y5214D1*
X40674Y5146D1*
X40678Y5090D1*
X40671Y5020D1*
X40653Y4953D1*
X40622Y4890D1*
X40581Y4834D1*
X40530Y4786D1*
X40472Y4747D1*
X40407Y4720D1*
X40339Y4705D1*
X40269Y4703D1*
X40200Y4713D1*
X40134Y4735D1*
X40100Y4752D1*
X38490D1*
X38455Y4754D1*
X38420Y4759D1*
X38387Y4768D1*
X38354Y4781D1*
X38323Y4797D1*
X38293Y4815D1*
X38251Y4851D1*
X37050Y6052D1*
X35330D1*
D19*
X8040Y4740D3*
Y5740D3*
Y6740D3*
X43440Y4740D3*
Y5740D3*
Y6740D3*
M02*
