M48
INCH
T01C0.0191
T02C0.042
T03C0.12
%
T01
X+010290Y+005090
X+009090Y+004540
X+011090Y+006390
X+015090Y+004540
X+016290Y+005090
X+017090Y+006390
X+021090Y+004540
X+022290Y+005090
X+023140Y+006390
X+027090Y+004540
X+028290Y+005090
X+029090Y+006390
X+033090Y+004540
X+034290Y+005090
X+035140Y+006390
X+039090Y+004540
X+040290Y+005090
X+041090Y+006390
T02
X+008040Y+004740
X+008040Y+005740
X+008040Y+006740
X+043440Y+006740
X+043440Y+005740
X+043440Y+004740
T03
X+005540Y+005740
X+045940Y+005740
T00
M30
